<svg xmlns="http://www.w3.org/2000/svg" width="19" height="19" viewBox="0 0 19 19">
    <path fill="#93C2DD" d="M6.567 1.893c.262 0 .474.212.474.474s-.212.474-.474.474H2.366c-.784.001-1.419.638-1.42 1.424v12.363c.001.785.636 1.422 1.42 1.423h13.277c.784 0 1.42-.638 1.42-1.423v-4.213c0-.262.212-.474.473-.474.262 0 .473.212.473.474v4.213c-.001 1.31-1.06 2.37-2.366 2.372H2.366C1.06 18.999.001 17.937 0 16.628V4.265c.001-1.31 1.06-2.371 2.366-2.372zM14.811.625c.831-.833 2.18-.833 3.011 0l.555.557c.83.834.83 2.185 0 3.02l-8.442 8.464c-.058.058-.13.1-.208.121L5.719 13.9c-.164.046-.34 0-.461-.121-.12-.121-.167-.298-.121-.462l1.11-4.019c.022-.079.064-.15.121-.209zm-7.857 9.668l-.682 2.47 2.463-.685-1.78-1.785zM14.31 2.47l-6.91 6.928 2.229 2.234 6.909-6.928-2.228-2.234zm2.844-1.174c-.462-.463-1.211-.463-1.673 0l-.502.503 2.228 2.235.502-.504c.461-.463.461-1.213 0-1.677z"/>
</svg>
