<svg xmlns="http://www.w3.org/2000/svg" width="16" height="19" viewBox="0 0 16 19">
    <path fill="#93C2DD" d="M9.73 0c.476 0 .864.399.864.889v.901h4.97c.241 0 .436.2.436.447s-.195.447-.435.447h-.807l-.55 14.71c-.034.9-.747 1.606-1.624 1.606H3.416c-.877 0-1.59-.705-1.624-1.606l-.55-14.71H.435c-.24 0-.435-.2-.435-.447s.195-.447.435-.447h4.971V.89c0-.49.388-.889.864-.889zm4.157 2.684H2.113l.549 14.676c.015.418.347.746.754.746h9.168c.407 0 .739-.328.754-.746l.549-14.676zM4.915 6.3c.236 0 .43.195.435.439l.136 7.297c.005.247-.186.45-.426.456-.245 0-.44-.195-.444-.439l-.137-7.297c-.004-.247.187-.45.427-.456zM8 6.3c.24 0 .435.2.435.448v7.297c0 .246-.195.447-.435.447s-.435-.2-.435-.447V6.747c0-.247.195-.448.435-.448zm3.094 0c.24.005.431.21.426.456l-.136 7.297c-.005.244-.199.439-.435.439-.249-.005-.44-.21-.435-.456l.136-7.297c.005-.247.204-.444.444-.438zM9.724.895H6.276v.896h3.448V.894z"/>
</svg>
